<?xml version="1.0" encoding="UTF-8" standalone="no"?>
<!DOCTYPE svg PUBLIC "-//W3C//DTD SVG 1.1//EN"
 "http://www.w3.org/Graphics/SVG/1.1/DTD/svg11.dtd">
<!-- Generated by graphviz version 2.40.1 (20161225.0304)
 -->
<!-- k=2 -->
<!-- Title: G Pages: 1 -->
<svg width="206pt" height="304pt"
 viewBox="0.00 0.00 206.00 303.60" xmlns="http://www.w3.org/2000/svg" xmlns:xlink="http://www.w3.org/1999/xlink">
<g id="graph0" class="graph" transform="scale(1 1) rotate(0) translate(4 299.6)">
<title>G</title>
<polygon fill="#ffffff" stroke="transparent" points="-4,4 -4,-299.6 202,-299.6 202,4 -4,4"/>
<text text-anchor="middle" x="99" y="-279" font-family="Times,serif" font-size="14.00" fill="#000000">Binomial Tree (rank=3)</text>
<!-- 1 -->
<g id="node1" class="node">
<title>1</title>
<ellipse fill="#ffeda0" stroke="#000000" cx="18" cy="-18" rx="18" ry="18"/>
</g>
<!-- 2 -->
<g id="node2" class="node">
<title>2</title>
<ellipse fill="#ffeda0" stroke="#000000" cx="18" cy="-91" rx="18" ry="18"/>
</g>
<!-- 2&#45;&#45;1 -->
<g id="edge1" class="edge">
<title>2&#45;&#45;1</title>
<path fill="none" stroke="#000000" d="M18,-72.9551C18,-61.7241 18,-47.3298 18,-36.0904"/>
</g>
<!-- 3 -->
<g id="node3" class="node">
<title>3</title>
<ellipse fill="#ffeda0" stroke="#000000" cx="72" cy="-91" rx="18" ry="18"/>
</g>
<!-- 4 -->
<g id="node4" class="node">
<title>4</title>
<ellipse fill="#ffeda0" stroke="#000000" cx="72" cy="-164" rx="18" ry="18"/>
<text text-anchor="middle" x="34.1151" y="-186.2" font-family="Times,serif" font-size="14.00" fill="#000000">rank=2</text>
</g>
<!-- 4&#45;&#45;2 -->
<g id="edge3" class="edge">
<title>4&#45;&#45;2</title>
<path fill="none" stroke="#000000" d="M61.0723,-149.2274C51.7035,-136.5622 38.2755,-118.4095 28.9115,-105.7507"/>
</g>
<!-- 4&#45;&#45;3 -->
<g id="edge2" class="edge">
<title>4&#45;&#45;3</title>
<path fill="none" stroke="#000000" d="M72,-145.9551C72,-134.7241 72,-120.3298 72,-109.0904"/>
</g>
<!-- 5 -->
<g id="node5" class="node">
<title>5</title>
<ellipse fill="#fd8d3c" stroke="#000000" cx="126" cy="-91" rx="18" ry="18"/>
</g>
<!-- 6 -->
<g id="node6" class="node">
<title>6</title>
<ellipse fill="#fd8d3c" stroke="#000000" cx="126" cy="-164" rx="18" ry="18"/>
</g>
<!-- 6&#45;&#45;5 -->
<g id="edge4" class="edge">
<title>6&#45;&#45;5</title>
<path fill="none" stroke="#000000" d="M126,-145.9551C126,-134.7241 126,-120.3298 126,-109.0904"/>
</g>
<!-- 7 -->
<g id="node7" class="node">
<title>7</title>
<ellipse fill="#bd0026" stroke="#bd0026" cx="180" cy="-164" rx="18" ry="18"/>
</g>
<!-- 8 -->
<g id="node8" class="node">
<title>8</title>
<ellipse fill="#d3d3d3" stroke="#000000" cx="126" cy="-252.8" rx="18" ry="18"/>
</g>
<!-- 8&#45;&#45;4 -->
<g id="edge7" class="edge">
<title>8&#45;&#45;4</title>
<path fill="none" stroke="#000000" d="M116.5939,-237.3322C106.743,-221.133 91.3578,-195.8328 81.4795,-179.5885"/>
</g>
<!-- 8&#45;&#45;6 -->
<g id="edge6" class="edge">
<title>8&#45;&#45;6</title>
<path fill="none" stroke="#000000" d="M126,-234.4006C126,-219.0587 126,-197.322 126,-182.072"/>
<text text-anchor="middle" x="106.1151" y="-212.4018" font-family="Times,serif" font-size="14.00" fill="#000000">rank=1</text>
</g>
<!-- 8&#45;&#45;7 -->
<g id="edge5" class="edge">
<title>8&#45;&#45;7</title>
<path fill="none" stroke="#000000" d="M135.4061,-237.3322C145.257,-221.133 160.6422,-195.8328 170.5205,-179.5885"/>
<text text-anchor="middle" x="176.8849" y="-204.2" font-family="Times,serif" font-size="14.00" fill="#000000">rank=0</text>
</g>
</g>
</svg>
