<?xml version="1.0" encoding="UTF-8" standalone="no"?>
<!DOCTYPE svg PUBLIC "-//W3C//DTD SVG 1.1//EN"
 "http://www.w3.org/Graphics/SVG/1.1/DTD/svg11.dtd">
<!-- Generated by graphviz version 2.40.1 (20161225.0304)
 -->
<!-- Title: bh1101 Pages: 1 -->
<svg width="193pt" height="225pt"
 viewBox="0.00 0.00 192.87 224.80" xmlns="http://www.w3.org/2000/svg" xmlns:xlink="http://www.w3.org/1999/xlink">
<g id="graph0" class="graph" transform="scale(1 1) rotate(0) translate(4 220.8)">
<title>bh1101</title>
<polygon fill="#ffffff" stroke="transparent" points="-4,4 -4,-220.8 188.8652,-220.8 188.8652,4 -4,4"/>
<text text-anchor="middle" x="92.4326" y="-200.2" font-family="Times,serif" font-size="14.00" fill="#000000">Binomial Heap, n = 13 (1101)</text>
<!-- r3 -->
<g id="node1" class="node">
<title>r3</title>
<text text-anchor="middle" x="61.0826" y="-162.6" font-family="times" font-size="14.00" fill="#000000">1</text>
<text text-anchor="middle" x="51.7523" y="-179.4" font-family="times" font-size="14.00" fill="#000000">r3</text>
</g>
<!-- r3_8 -->
<g id="node14" class="node">
<title>r3_8</title>
<ellipse fill="#000000" stroke="#000000" cx="61.0826" cy="-120.6" rx="1.8" ry="1.8"/>
</g>
<!-- r3&#45;&#45;r3_8 -->
<g id="edge13" class="edge">
<title>r3&#45;&#45;r3_8</title>
<path fill="none" stroke="#000000" d="M61.0826,-158.3262C61.0826,-147.2811 61.0826,-128.6571 61.0826,-122.5815"/>
</g>
<!-- r2 -->
<g id="node2" class="node">
<title>r2</title>
<text text-anchor="middle" x="116.0826" y="-162.6" font-family="times" font-size="14.00" fill="#000000">1</text>
<text text-anchor="middle" x="106.7523" y="-179.4" font-family="times" font-size="14.00" fill="#000000">r2</text>
</g>
<!-- r2_4 -->
<g id="node8" class="node">
<title>r2_4</title>
<ellipse fill="#000000" stroke="#000000" cx="116.0826" cy="-120.6" rx="1.8" ry="1.8"/>
</g>
<!-- r2&#45;&#45;r2_4 -->
<g id="edge5" class="edge">
<title>r2&#45;&#45;r2_4</title>
<path fill="none" stroke="#000000" d="M116.0826,-158.3262C116.0826,-147.2811 116.0826,-128.6571 116.0826,-122.5815"/>
</g>
<!-- r1 -->
<g id="node3" class="node">
<title>r1</title>
<text text-anchor="middle" x="141.0826" y="-162.6" font-family="times" font-size="14.00" fill="#000000">0</text>
<text text-anchor="middle" x="131.7523" y="-179.4" font-family="times" font-size="14.00" fill="#000000">r1</text>
</g>
<!-- r0 -->
<g id="node4" class="node">
<title>r0</title>
<text text-anchor="middle" x="166.0826" y="-162.6" font-family="times" font-size="14.00" fill="#000000">1</text>
<text text-anchor="middle" x="156.7523" y="-179.4" font-family="times" font-size="14.00" fill="#000000">r0</text>
</g>
<!-- r0_1 -->
<g id="node5" class="node">
<title>r0_1</title>
<ellipse fill="#000000" stroke="#000000" cx="166.0826" cy="-120.6" rx="1.8" ry="1.8"/>
</g>
<!-- r0&#45;&#45;r0_1 -->
<g id="edge1" class="edge">
<title>r0&#45;&#45;r0_1</title>
<path fill="none" stroke="#000000" d="M166.0826,-158.3262C166.0826,-147.2811 166.0826,-128.6571 166.0826,-122.5815"/>
</g>
<!-- r2_2 -->
<g id="node6" class="node">
<title>r2_2</title>
<ellipse fill="#000000" stroke="#000000" cx="105.0826" cy="-81" rx="1.8" ry="1.8"/>
</g>
<!-- r2_1 -->
<g id="node7" class="node">
<title>r2_1</title>
<ellipse fill="#000000" stroke="#000000" cx="105.0826" cy="-41.4" rx="1.8" ry="1.8"/>
</g>
<!-- r2_2&#45;&#45;r2_1 -->
<g id="edge2" class="edge">
<title>r2_2&#45;&#45;r2_1</title>
<path fill="none" stroke="#000000" d="M105.0826,-78.8709C105.0826,-71.9308 105.0826,-50.0261 105.0826,-43.3503"/>
</g>
<!-- r2_4&#45;&#45;r2_2 -->
<g id="edge4" class="edge">
<title>r2_4&#45;&#45;r2_2</title>
<path fill="none" stroke="#000000" d="M115.4912,-118.4709C113.5634,-111.5308 107.4787,-89.6261 105.6243,-82.9503"/>
</g>
<!-- r2_3 -->
<g id="node9" class="node">
<title>r2_3</title>
<ellipse fill="#000000" stroke="#000000" cx="127.0826" cy="-81" rx="1.8" ry="1.8"/>
</g>
<!-- r2_4&#45;&#45;r2_3 -->
<g id="edge3" class="edge">
<title>r2_4&#45;&#45;r2_3</title>
<path fill="none" stroke="#000000" d="M116.674,-118.4709C118.6018,-111.5308 124.6865,-89.6261 126.5409,-82.9503"/>
</g>
<!-- r3_2 -->
<g id="node10" class="node">
<title>r3_2</title>
<ellipse fill="#000000" stroke="#000000" cx="17.0826" cy="-41.4" rx="1.8" ry="1.8"/>
</g>
<!-- r3_1 -->
<g id="node11" class="node">
<title>r3_1</title>
<ellipse fill="#000000" stroke="#000000" cx="17.0826" cy="-1.8" rx="1.8" ry="1.8"/>
</g>
<!-- r3_2&#45;&#45;r3_1 -->
<g id="edge6" class="edge">
<title>r3_2&#45;&#45;r3_1</title>
<path fill="none" stroke="#000000" d="M17.0826,-39.2709C17.0826,-32.3308 17.0826,-10.4261 17.0826,-3.7503"/>
</g>
<!-- r3_4 -->
<g id="node12" class="node">
<title>r3_4</title>
<ellipse fill="#000000" stroke="#000000" cx="39.0826" cy="-81" rx="1.8" ry="1.8"/>
</g>
<!-- r3_4&#45;&#45;r3_2 -->
<g id="edge7" class="edge">
<title>r3_4&#45;&#45;r3_2</title>
<path fill="none" stroke="#000000" d="M38.1373,-79.2984C34.5185,-72.7846 21.5701,-49.4775 17.9999,-43.0511"/>
</g>
<!-- r3_3 -->
<g id="node13" class="node">
<title>r3_3</title>
<ellipse fill="#000000" stroke="#000000" cx="39.0826" cy="-41.4" rx="1.8" ry="1.8"/>
</g>
<!-- r3_4&#45;&#45;r3_3 -->
<g id="edge8" class="edge">
<title>r3_4&#45;&#45;r3_3</title>
<path fill="none" stroke="#000000" d="M39.0826,-78.8709C39.0826,-71.9308 39.0826,-50.0261 39.0826,-43.3503"/>
</g>
<!-- r3_8&#45;&#45;r3_4 -->
<g id="edge9" class="edge">
<title>r3_8&#45;&#45;r3_4</title>
<path fill="none" stroke="#000000" d="M60.1373,-118.8984C56.5185,-112.3846 43.5701,-89.0775 39.9999,-82.6511"/>
</g>
<!-- r3_7 -->
<g id="node15" class="node">
<title>r3_7</title>
<ellipse fill="#000000" stroke="#000000" cx="61.0826" cy="-81" rx="1.8" ry="1.8"/>
</g>
<!-- r3_8&#45;&#45;r3_7 -->
<g id="edge10" class="edge">
<title>r3_8&#45;&#45;r3_7</title>
<path fill="none" stroke="#000000" d="M61.0826,-118.4709C61.0826,-111.5308 61.0826,-89.6261 61.0826,-82.9503"/>
</g>
<!-- r3_5 -->
<g id="node17" class="node">
<title>r3_5</title>
<ellipse fill="#000000" stroke="#000000" cx="83.0826" cy="-81" rx="1.8" ry="1.8"/>
</g>
<!-- r3_8&#45;&#45;r3_5 -->
<g id="edge12" class="edge">
<title>r3_8&#45;&#45;r3_5</title>
<path fill="none" stroke="#000000" d="M62.0279,-118.8984C65.6467,-112.3846 78.5951,-89.0775 82.1653,-82.6511"/>
</g>
<!-- r3_6 -->
<g id="node16" class="node">
<title>r3_6</title>
<ellipse fill="#000000" stroke="#000000" cx="61.0826" cy="-41.4" rx="1.8" ry="1.8"/>
</g>
<!-- r3_7&#45;&#45;r3_6 -->
<g id="edge11" class="edge">
<title>r3_7&#45;&#45;r3_6</title>
<path fill="none" stroke="#000000" d="M61.0826,-78.8709C61.0826,-71.9308 61.0826,-50.0261 61.0826,-43.3503"/>
</g>
</g>
</svg>
